<?xml version="1.0" encoding="UTF-8"?><svg xmlns="http://www.w3.org/2000/svg" xmlns:xlink="http://www.w3.org/1999/xlink" width="32px" height="32px" viewBox="0 0 32 32" version="1.1"><title>Lager_28_kopia</title><g id="Page-1" stroke="none" stroke-width="1" fill="none" fill-rule="evenodd"><g id="Asset-1" transform="translate(-4.000000, -2.000000)" fill-rule="nonzero" fill="#000"><g id="Lager_28_kopia" transform="translate(4.000000, 2.000000)"><path d="M16 0C7.163 0 0 7.163 0 16s7.163 16 16 16 16-7.163 16-16A16 16 0 0 0 16 0zm0 28C9.373 28 4 22.627 4 16S9.373 4 16 4s12 5.373 12 12c-.007 6.624-5.376 11.993-12 12z" id="Shape"/><path d="M22.02 14H18V9.98A1.98 1.98 0 0 0 16.02 8h-.04A1.98 1.98 0 0 0 14 9.98V14H9.98A1.98 1.98 0 0 0 8 15.98v.04A1.98 1.98 0 0 0 9.98 18H14v4.02A1.98 1.98 0 0 0 15.98 24h.04A1.98 1.98 0 0 0 18 22.02V18h4.02A1.98 1.98 0 0 0 24 16.02v-.04A1.98 1.98 0 0 0 22.02 14z" id="Shape"/></g></g></g><metadata><rdf:RDF xmlns:rdf="http://www.w3.org/1999/02/22-rdf-syntax-ns#" xmlns:rdfs="http://www.w3.org/2000/01/rdf-schema#" xmlns:dc="http://purl.org/dc/elements/1.1/"><rdf:Description about="https://iconscout.com/legal#licenses" dc:title="add,insert,plus" dc:description="add,insert,plus" dc:publisher="Iconscout" dc:date="2017-09-14" dc:format="image/svg+xml" dc:language="en"><dc:creator><rdf:Bag><rdf:li>Victor Erixon</rdf:li></rdf:Bag></dc:creator></rdf:Description></rdf:RDF></metadata></svg>