<svg xmlns="http://www.w3.org/2000/svg" xmlns:svg="http://www.w3.org/2000/svg" id="svg2" width="32" height="32" version="1.1" viewBox="0 0 32 32"><g id="layer1" transform="translate(0,-1020.3622)"><path style="opacity:1;fill:none;fill-opacity:1;stroke:#000;stroke-width:.99999994;stroke-linecap:round;stroke-linejoin:round;stroke-miterlimit:4;stroke-dasharray:none;stroke-dashoffset:0;stroke-opacity:1" id="path23155" d="m 13.000407,1049.3621 a 1.5,1.5 0 0 1 -1.5,1.5 1.5,1.5 0 0 1 -1.499999,-1.5 1.5,1.5 0 0 1 1.499999,-1.5 1.5,1.5 0 0 1 1.5,1.5 z"/><path id="path23157" d="m 11.500235,1047.8622 1.500019,-6.5" style="fill:none;fill-rule:evenodd;stroke:#000;stroke-width:.99999994px;stroke-linecap:butt;stroke-linejoin:miter;stroke-opacity:1"/><path id="path23159" d="m 12.248859,1045.3511 1.501405,0.011 m 1.749984,-3e-4 3.250001,3e-4" style="fill:none;fill-rule:evenodd;stroke:#000;stroke-width:.99999994;stroke-linecap:round;stroke-linejoin:round;stroke-miterlimit:4;stroke-dasharray:none;stroke-opacity:1"/><path style="fill:none;fill-rule:evenodd;stroke:#000;stroke-width:1px;stroke-linecap:round;stroke-linejoin:round;stroke-opacity:1" id="path23161" d="m 9.5968654,1025.3564 -0.4399208,-0.6556 c -0.2902526,-0.4325 -0.1730268,-1.0187 0.2612599,-1.3063 l 1.3237945,-0.8767 c 0.435822,-0.2888 1.022951,-0.1712 1.314338,0.2627 l 0.479294,0.7196 c 3.209497,-1.2947 6.896158,-0.5875 9.459566,1.8147 l -14.7584486,8.5392 c -0.8163511,-3.5256 0.5134674,-7.1752 3.3834006,-9.2856"/><path id="path23167" d="m 18.003366,1033.3558 c 0,0 0.533518,-1.1163 0.998627,-1.4932 0.696491,-0.5644 1.800227,-0.4342 2.496529,-0.9988 0.465449,-0.3772 0.998627,-1.4952 0.998627,-1.4952" style="fill:none;fill-rule:evenodd;stroke:#000;stroke-width:.99999994px;stroke-linecap:round;stroke-linejoin:round;stroke-opacity:1"/><path style="fill:none;fill-rule:evenodd;stroke:#000;stroke-width:.99999994px;stroke-linecap:round;stroke-linejoin:round;stroke-opacity:1" id="path23169" d="m 20.504695,1033.3566 c 0,0 0.298961,-0.3749 0.499314,-0.4982 0.89537,-0.5522 2.200479,-0.3084 2.995653,-0.9964 0.562281,-0.4866 0.998552,-1.9929 0.998552,-1.9929"/><path id="path23171" d="m 22.497149,1037.8621 2.486967,0" style="fill:none;fill-rule:evenodd;stroke:#000;stroke-width:.99999994px;stroke-linecap:round;stroke-linejoin:round;stroke-opacity:1"/><path style="opacity:1;fill:none;fill-opacity:1;stroke:#000;stroke-width:1.00000012;stroke-linecap:round;stroke-linejoin:round;stroke-miterlimit:4;stroke-dasharray:none;stroke-dashoffset:0;stroke-opacity:1" id="path23173" d="m 16.209697,1041.3316 c -3.920952,0.3387 -7.5448174,-2.1428 -8.7072531,-5.9626 l 15.9957221,0 c -0.819158,2.6905 -2.89595,4.7946 -5.546327,5.6193 0.66238,3.2927 2.046891,9.8658 2.046891,9.8658"/></g><metadata/></svg>