<?xml version="1.0" encoding="UTF-8" standalone="no"?>
<svg xmlns:dc="http://purl.org/dc/elements/1.1/" xmlns:cc="http://creativecommons.org/ns#" xmlns:rdf="http://www.w3.org/1999/02/22-rdf-syntax-ns#" xmlns:svg="http://www.w3.org/2000/svg" xmlns="http://www.w3.org/2000/svg" xmlns:sodipodi="http://sodipodi.sourceforge.net/DTD/sodipodi-0.dtd" xmlns:inkscape="http://www.inkscape.org/namespaces/inkscape" width="32" height="32" viewBox="0 0 32 32.000001" id="svg2" version="1.1" inkscape:version="0.91 r13725" sodipodi:docname="barbecue-grill-food-sausage-cook-cooking.svg">
  <defs id="defs4"/>
  <sodipodi:namedview id="base" pagecolor="#ffffff" bordercolor="#666666" borderopacity="1.0" inkscape:pageopacity="0.0" inkscape:pageshadow="2" inkscape:zoom="11.2" inkscape:cx="28.585858" inkscape:cy="9.3227844" inkscape:document-units="px" inkscape:current-layer="layer1" showgrid="false" units="px" inkscape:window-width="1366" inkscape:window-height="716" inkscape:window-x="-8" inkscape:window-y="-8" inkscape:window-maximized="1"/>
  
  <g inkscape:label="Layer 1" inkscape:groupmode="layer" id="layer1" transform="translate(0,-1020.3622)">
    <path inkscape:connector-curvature="0" style="opacity:1;fill:none;fill-opacity:1;stroke:#000000;stroke-width:0.99999994;stroke-linecap:round;stroke-linejoin:round;stroke-miterlimit:4;stroke-dasharray:none;stroke-dashoffset:0;stroke-opacity:1" d="m 13.000407,1049.3621 a 1.5,1.5 0 0 1 -1.5,1.5 1.5,1.5 0 0 1 -1.499999,-1.5 1.5,1.5 0 0 1 1.499999,-1.5 1.5,1.5 0 0 1 1.5,1.5 z" id="path23155"/>
    <path inkscape:connector-curvature="0" id="path23157" d="m 11.500235,1047.8622 1.500019,-6.5" style="fill:none;fill-rule:evenodd;stroke:#000000;stroke-width:0.99999994px;stroke-linecap:butt;stroke-linejoin:miter;stroke-opacity:1"/>
    <path inkscape:connector-curvature="0" id="path23159" d="m 12.248859,1045.3511 1.501405,0.011 m 1.749984,-3e-4 3.250001,3e-4" style="fill:none;fill-rule:evenodd;stroke:#000000;stroke-width:0.99999994;stroke-linecap:round;stroke-linejoin:round;stroke-miterlimit:4;stroke-dasharray:none;stroke-opacity:1" sodipodi:nodetypes="cccc"/>
    <path style="fill:none;fill-rule:evenodd;stroke:#000000;stroke-width:1px;stroke-linecap:round;stroke-linejoin:round;stroke-opacity:1" d="m 9.5968654,1025.3564 -0.4399208,-0.6556 c -0.2902526,-0.4325 -0.1730268,-1.0187 0.2612599,-1.3063 l 1.3237945,-0.8767 c 0.435822,-0.2888 1.022951,-0.1712 1.314338,0.2627 l 0.479294,0.7196 c 3.209497,-1.2947 6.896158,-0.5875 9.459566,1.8147 l -14.7584486,8.5392 c -0.8163511,-3.5256 0.5134674,-7.1752 3.3834006,-9.2856" id="path23161" inkscape:connector-curvature="0" sodipodi:nodetypes="ccccccccc"/>
    <path sodipodi:nodetypes="caac" inkscape:connector-curvature="0" id="path23167" d="m 18.003366,1033.3558 c 0,0 0.533518,-1.1163 0.998627,-1.4932 0.696491,-0.5644 1.800227,-0.4342 2.496529,-0.9988 0.465449,-0.3772 0.998627,-1.4952 0.998627,-1.4952" style="fill:none;fill-rule:evenodd;stroke:#000000;stroke-width:0.99999994px;stroke-linecap:round;stroke-linejoin:round;stroke-opacity:1"/>
    <path style="fill:none;fill-rule:evenodd;stroke:#000000;stroke-width:0.99999994px;stroke-linecap:round;stroke-linejoin:round;stroke-opacity:1" d="m 20.504695,1033.3566 c 0,0 0.298961,-0.3749 0.499314,-0.4982 0.89537,-0.5522 2.200479,-0.3084 2.995653,-0.9964 0.562281,-0.4866 0.998552,-1.9929 0.998552,-1.9929" id="path23169" inkscape:connector-curvature="0" sodipodi:nodetypes="caac"/>
    <path sodipodi:nodetypes="cc" inkscape:connector-curvature="0" id="path23171" d="m 22.497149,1037.8621 2.486967,0" style="fill:none;fill-rule:evenodd;stroke:#000000;stroke-width:0.99999994px;stroke-linecap:round;stroke-linejoin:round;stroke-opacity:1"/>
    <path style="opacity:1;fill:none;fill-opacity:1;stroke:#000000;stroke-width:1.00000012;stroke-linecap:round;stroke-linejoin:round;stroke-miterlimit:4;stroke-dasharray:none;stroke-dashoffset:0;stroke-opacity:1" d="m 16.209697,1041.3316 c -3.920952,0.3387 -7.5448174,-2.1428 -8.7072531,-5.9626 l 15.9957221,0 c -0.819158,2.6905 -2.89595,4.7946 -5.546327,5.6193 0.66238,3.2927 2.046891,9.8658 2.046891,9.8658" id="path23173" inkscape:connector-curvature="0" sodipodi:nodetypes="ccccc"/>
  </g>

	<metadata>
		<rdf:RDF xmlns:rdf="http://www.w3.org/1999/02/22-rdf-syntax-ns#" xmlns:rdfs="http://www.w3.org/2000/01/rdf-schema#" xmlns:dc="http://purl.org/dc/elements/1.1/">
			<rdf:Description about="https://iconscout.com/legal#licenses" dc:title="barbecue-grill-food-sausage-cook-cooking-smoke" dc:description="barbecue-grill-food-sausage-cook-cooking-smoke" dc:publisher="Iconscout" dc:date="2017-06-27" dc:format="image/svg+xml" dc:language="en">
				<dc:creator>
					<rdf:Bag>
						<rdf:li>Vignesh Oviyan</rdf:li>
					</rdf:Bag>
				</dc:creator>
			</rdf:Description>
		</rdf:RDF>
    </metadata></svg>
