<?xml version="1.0" encoding="UTF-8"?><svg xmlns="http://www.w3.org/2000/svg" xmlns:xlink="http://www.w3.org/1999/xlink" version="1.1" id="Layer_1" x="0px" y="0px" viewBox="0 0 24 24" xml:space="preserve"><g fill="none" stroke="#303C42" stroke-linecap="round" stroke-linejoin="round" stroke-miterlimit="10"><path d="M22.5 10.5v2a6 6 0 0 1-6 6h-9a6 6 0 0 1-6-6v-2"/><path d="M5.5 10.5h-4a1 1 0 1 1 0-2h21a1 1 0 1 1 0 2h-11"/><path d="M21.5 8.5V5a1.5 1.5 0 0 0-3 0v.5"/><path d="M4.5 17.697V20.5h1l1.038-2.077"/><path d="M19.5 17.696V20.5h-1l-1.038-2.077"/><path d="M5.5 8.5v5l6 1v-6"/></g><metadata><rdf:RDF xmlns:rdf="http://www.w3.org/1999/02/22-rdf-syntax-ns#" xmlns:rdfs="http://www.w3.org/2000/01/rdf-schema#" xmlns:dc="http://purl.org/dc/elements/1.1/"><rdf:Description about="https://iconscout.com/legal#licenses" dc:title="bath,bathroom,bathtub,shower,interior" dc:description="bath,bathroom,bathtub,shower,interior" dc:publisher="Iconscout" dc:date="2017-08-16" dc:format="image/svg+xml" dc:language="en"><dc:creator><rdf:Bag><rdf:li>Those Icons</rdf:li></rdf:Bag></dc:creator></rdf:Description></rdf:RDF></metadata></svg>