<svg xmlns="http://www.w3.org/2000/svg" xmlns:xlink="http://www.w3.org/1999/xlink" width="655.359" height="655.359" viewBox="0 0 6.827 6.827" xml:space="preserve" style="shape-rendering:geometricPrecision;text-rendering:geometricPrecision;image-rendering:optimizeQuality;fill-rule:evenodd;clip-rule:evenodd"><defs><style type="text/css">.fil1{fill:none}.fil0{fill:#000;fill-rule:nonzero}</style></defs><g id="Layer_x0020_1"><polygon points="3.257 1.524 3.257 .933 3.337 .933 3.648 1.397 3.648 .933 3.723 .933 3.723 1.524 3.642 1.524 3.332 1.06 3.332 1.524" class="fil0" style="fill:#000;fill-rule:nonzero"/><path d="M3.2512 5.89333l-0.148953 -0.561197 0.0761772 0 0.0854528 0.367815c0.00914567,0.0385472 0.0169843,0.0768307 0.0236496,0.114854 0.014374,-0.0599764 0.0227362,-0.0944685 0.0253465,-0.103748l0.106752 -0.378921 0.0896339 0 0.0803583 0.284063c0.020122,0.0704252 0.034626,0.136673 0.0436417,0.198606 0.00705512,-0.0354094 0.0164646,-0.0761772 0.0279606,-0.122039l0.087937 -0.36063 0.0747402 0 -0.153921 0.561197 -0.0716024 0 -0.118252 -0.427528c-0.00992913,-0.0358031 -0.0158071,-0.057752 -0.0176378,-0.0658543 -0.00587795,0.0257402 -0.0113661,0.0476929 -0.0164646,0.0658543l-0.119031 0.427528 -0.0757874 0z" class="fil0" style="fill:#000;fill-rule:nonzero"/><polygon points="5.403 3.681 5.403 3.141 5.793 3.141 5.793 3.205 5.474 3.205 5.474 3.37 5.772 3.37 5.772 3.434 5.474 3.434 5.474 3.617 5.805 3.617 5.805 3.681" class="fil0" style="fill:#000;fill-rule:nonzero"/><path d="M1.06311 3.52954l0.0826654 -0.00724803c0.00385433,0.0331575 0.0129528,0.0603031 0.0272953,0.0815827 0.0143425,0.0212835 0.0365512,0.0384016 0.066626,0.0515118 0.0300709,0.0131102 0.064,0.0195866 0.10163,0.0195866 0.0334646,0 0.0629213,-0.00493701 0.0885236,-0.0148071 0.0255984,-0.0100236 0.0447244,-0.0235945 0.0572165,-0.0408661 0.0124921,-0.0174291 0.018815,-0.0362441 0.018815,-0.0567559 0,-0.0208189 -0.00601575,-0.0388622 -0.0182008,-0.0544409 -0.0120276,-0.0155748 -0.0319213,-0.0285276 -0.0595276,-0.0390157 -0.0178898,-0.00694094 -0.057063,-0.0177362 -0.11798,-0.0323858 -0.0607638,-0.0146535 -0.10348,-0.028378 -0.127846,-0.0413307 -0.0316181,-0.0165039 -0.0552126,-0.0371693 -0.0707874,-0.061689 -0.0154252,-0.0245236 -0.0231339,-0.0519724 -0.0231339,-0.0825079 0,-0.033315 0.00940551,-0.0646181 0.028374,-0.0936142 0.0189724,-0.0291457 0.0467323,-0.0512008 0.083126,-0.066315 0.0365512,-0.0149606 0.0769567,-0.0225157 0.121528,-0.0225157 0.0491969,0 0.092378,0.00786614 0.130008,0.023748 0.0374764,0.0157323 0.066315,0.0390197 0.0865197,0.0697087 0.0200472,0.0306929 0.0309961,0.0655433 0.0325394,0.104409l-0.0840512 0.00632283c-0.00462598,-0.0417953 -0.0198937,-0.073563 -0.0459567,-0.0948465 -0.026063,-0.021437 -0.0644646,-0.0320787 -0.115358,-0.0320787 -0.0530512,0 -0.0916063,0.00971654 -0.115972,0.0291496 -0.0242165,0.0194291 -0.0363976,0.042874 -0.0363976,0.0701693 0,0.0239055 0.0086378,0.0434921 0.0257559,0.0587598 0.0169646,0.0154213 0.0609173,0.0311496 0.132165,0.047189 0.071252,0.0161929 0.120138,0.0302283 0.146665,0.0422598 0.0385551,0.0178898 0.0670866,0.0404055 0.085437,0.0675472 0.0183543,0.0272953 0.0274528,0.0587598 0.0274528,0.0942283 0,0.0353189 -0.0100236,0.0684764 -0.0302283,0.099626 -0.0202008,0.0311535 -0.0491969,0.0553661 -0.0869803,0.0727953 -0.0377835,0.0172717 -0.0803504,0.0259094 -0.127539,0.0259094 -0.0599921,0 -0.110268,-0.0086378 -0.150673,-0.0262205 -0.040563,-0.0174252 -0.0723307,-0.0436417 -0.0954646,-0.0788071 -0.0229803,-0.0350079 -0.0351614,-0.0747953 -0.0362441,-0.119059z" class="fil0" style="fill:#000;fill-rule:nonzero"/><path d="M3.53831 1.76493c0,-0.0441811 -0.0358189,-0.08 -0.08,-0.08 -0.0441811,0 -0.08,0.0358189 -0.08,0.08l0 3.29249c0,0.0441811 0.0358189,0.08 0.08,0.08 0.0441811,0 0.08,-0.0358189 0.08,-0.08l0 -3.29249z" class="fil0" style="fill:#000;fill-rule:nonzero"/><path d="M5.10456 3.49117c0.0441811,0 0.08,-0.0358189 0.08,-0.08 0,-0.0441811 -0.0358189,-0.08 -0.08,-0.08l-3.29249 0c-0.0441811,0 -0.08,0.0358189 -0.08,0.08 0,0.0441811 0.0358189,0.08 0.08,0.08l3.29249 0z" class="fil0" style="fill:#000;fill-rule:nonzero"/><path d="M3.45831 2.70133c0.196008,0 0.373469,0.0794567 0.501925,0.207913 0.128457,0.128457 0.207913,0.305917 0.207913,0.501925 0,0.196004 -0.0794606,0.373465 -0.207913,0.501917 -0.128457,0.128457 -0.305921,0.207913 -0.501925,0.207913 -0.196004,0 -0.373469,-0.0794567 -0.501925,-0.207913 -0.128453,-0.128453 -0.207913,-0.305913 -0.207913,-0.501917 0,-0.196008 0.0794567,-0.373469 0.207913,-0.501925 0.128457,-0.128457 0.305917,-0.207913 0.501925,-0.207913zm0.388799 0.321039c-0.0994961,-0.0994961 -0.236961,-0.161039 -0.388799,-0.161039 -0.151839,0 -0.289303,0.0615433 -0.388799,0.161039 -0.0994961,0.0994961 -0.161039,0.236961 -0.161039,0.388799 0,0.151835 0.0615472,0.289299 0.161039,0.388791 0.0994961,0.0994961 0.236965,0.161039 0.388799,0.161039 0.151835,0 0.289303,-0.0615433 0.388799,-0.161039 0.0994921,-0.0994921 0.161039,-0.236957 0.161039,-0.388791 0,-0.151839 -0.0615433,-0.289303 -0.161039,-0.388799z" class="fil0" style="fill:#000;fill-rule:nonzero"/></g><rect width="6.827" height="6.827" class="fil1" style="fill:none"/><metadata><rdf:RDF xmlns:dc="http://purl.org/dc/elements/1.1/" xmlns:rdf="http://www.w3.org/1999/02/22-rdf-syntax-ns#" xmlns:rdfs="http://www.w3.org/2000/01/rdf-schema#"><rdf:Description about="https://iconscout.com/legal#licenses" dc:date="2016-12-14" dc:description="Direction, Arrow, Location, Map, Navigation, Pointer" dc:format="image/svg+xml" dc:language="en" dc:publisher="Iconscout" dc:title="Direction, Arrow, Location, Map, Navigation, Pointer"><dc:creator><rdf:Bag><rdf:li>Design 0 Fire</rdf:li></rdf:Bag></dc:creator></rdf:Description></rdf:RDF></metadata></svg>