<svg xmlns="http://www.w3.org/2000/svg" fill-rule="evenodd" stroke-linejoin="round" stroke-miterlimit="2" clip-rule="evenodd" viewBox="0 0 32 32"><g><rect width="32" height="32" fill="none"/><path d="M63.5,56C63.5,55.337 63.237,54.701 62.768,54.232C62.299,53.763 61.663,53.5 61,53.5C56.157,53.5 43.843,53.5 39,53.5C37.619,53.5 36.5,54.619 36.5,56C36.5,60.184 36.5,69.816 36.5,74C36.5,74.663 36.763,75.299 37.232,75.768C37.701,76.237 38.337,76.5 39,76.5C43.843,76.5 56.157,76.5 61,76.5C62.381,76.5 63.5,75.381 63.5,74L63.5,56ZM52.769,65.737L51.837,66.747C51.364,67.26 50.698,67.551 50,67.551C49.302,67.551 48.636,67.26 48.163,66.747L47.231,65.737L38.367,75.339C38.363,75.344 38.358,75.349 38.354,75.354C38.554,75.449 38.774,75.5 39,75.5C43.843,75.5 56.157,75.5 61,75.5C61.232,75.5 61.451,75.448 61.647,75.354C61.642,75.349 61.637,75.344 61.633,75.339L52.769,65.737ZM62.354,55.354L53.45,65L62.354,74.646C62.448,74.451 62.5,74.231 62.5,74L62.5,56C62.5,55.774 62.449,55.554 62.354,55.354ZM37.646,55.354C37.552,55.549 37.5,55.769 37.5,56C37.5,60.184 37.5,69.816 37.5,74C37.5,74.226 37.551,74.446 37.646,74.646L46.55,65L37.646,55.354ZM61.646,54.646C61.446,54.551 61.226,54.5 61,54.5C56.157,54.5 43.843,54.5 39,54.5C38.768,54.5 38.549,54.552 38.353,54.646C38.358,54.651 38.363,54.656 38.367,54.661L47.596,64.659L48.898,66.069C49.182,66.376 49.581,66.551 50,66.551C50.419,66.551 50.818,66.376 51.102,66.069L52.401,64.661L61.633,54.661C61.637,54.656 61.642,54.651 61.646,54.646Z" transform="translate(-34 -47)"/></g></svg>