<svg xmlns="http://www.w3.org/2000/svg" width="32" height="32" viewBox="0 0 32 32"><path d="m 15.248657,1021.3624 c -0.822542,0 -1.498401,0.6777 -1.498401,1.4999 v 20.75 H 7.9969571 c -1.18543,0 -2.153616,0.9321 -2.234906,2.0976 -1.111109,1.9552 -1.537769,3.3221 -1.758221,5.0919 -0.03666,0.2974 0.194494,0.5595 0.494256,0.5605 h 2.996803 c 0.108661,0 0.214979,-0.03 0.302815,-0.096 l 1.203402,-0.9082 v 0.5019 c -9.98e-4,0.2748 0.221329,0.499 0.496218,0.502 h 4.5030079 c 0.108661,0 0.214979,-0.03 0.302816,-0.096 l 1.195593,-0.9004 v 0.4941 c -0.001,0.2778 0.224315,0.503 0.502065,0.502 h 4.50497 c 0.274885,0 0.495333,-0.2272 0.494256,-0.502 v -0.2948 l 0.65054,0.6505 c 0.09373,0.094 0.220497,0.1466 0.353575,0.1466 h 4.999222 c 0.440546,0 0.660975,-0.5322 0.353613,-0.8477 -1.785241,-1.6588 -2.498918,-3.033 -2.611945,-4.709 -0.03213,-1.2105 -1.028492,-2.1933 -2.246615,-2.1933 h -5.74354 v -20.75 c 0,-0.8223 -0.683679,-1.4999 -1.506214,-1.4999 z m 0,1.0039 c 0.285732,0 0.502069,0.2105 0.502069,0.496 v 16.5059 h -0.996325 v -16.5059 c 0,-0.2856 0.208516,-0.496 0.494256,-0.496 z m -0.494256,17.998 h 0.996325 v 3.248 h -0.996325 z m -6.7574439,4.2519 H 22.498411 c 0.52179,0 0.961443,0.3024 1.152608,0.7461 H 6.8521571 c 0.18909,-0.4436 0.623018,-0.7461 1.1448,-0.7461 z m -1.45347,1.7422 17.2657689,0.019 c 0.268196,1.6907 0.989091,2.8645 2.018053,3.9824 l -3.616078,0.01 -1.359697,-1.3574 c -0.315552,-0.3073 -0.844259,-0.087 -0.847861,0.3534 v 1.0039 h -3.500821 v -1.0039 c 0.002,-0.4157 -0.475151,-0.6516 -0.80487,-0.3985 l -1.867626,1.4023 H 9.9993771 v -1.0039 c -0.003,-0.4088 -0.470161,-0.6414 -0.799018,-0.3984 l -1.86762,1.4023 -2.266159,0.023 c 0.239698,-1.3796 0.544997,-2.3693 1.476907,-4.0313 z" color="#000" font-family="sans-serif" font-weight="400" overflow="visible" transform="translate(0 -1020.362)" white-space="normal" style="line-height:normal;font-variant-ligatures:normal;font-variant-position:normal;font-variant-caps:normal;font-variant-numeric:normal;font-variant-alternates:normal;font-feature-settings:normal;text-indent:0;text-align:start;text-decoration-line:none;text-decoration-style:solid;text-decoration-color:#000;text-transform:none;text-orientation:mixed;shape-padding:0;isolation:auto;mix-blend-mode:normal"/></svg>