<svg xmlns="http://www.w3.org/2000/svg" data-name="Layer 1" viewBox="0 0 512 512"><path d="M512,71.50019v-49a22.52586,22.52586,0,0,0-22.5-22.5H22.5a22.52586,22.52586,0,0,0-22.5,22.5v49A22.5302,22.5302,0,0,0,20,93.8581V497.00019H7.5a7.5,7.5,0,0,0,0,15H179.61011c.258.00684.5166.01856.77368.01856.196,0,.38989-.01465.58545-.01856H331.03076c.19531.00391.38941.01856.58545.01856.25659,0,.51465-.01172.77222-.01856H504.5a7.5,7.5,0,0,0,0-15H492V93.8581A22.5302,22.5302,0,0,0,512,71.50019Zm-402,425.5H35V451.06562h75Zm0-320.62988H89.26465a7.5,7.5,0,1,0,0,15H110v75H89.26465a7.5,7.5,0,0,0,0,15H110v75H89.26465a7.5,7.5,0,0,0,0,15H110v64.69531H35V416.37031H55.73535a7.5,7.5,0,0,0,0-15H35v-75H55.73535a7.5,7.5,0,0,0,0-15H35v-75H55.73535a7.5,7.5,0,1,0,0-15H35V154.93476h75Zm0-36.43555H35V94.00019h75Zm82.89258,345.335c-.73926,4.585-3.00781,8.18458-6.38672,10.13575-3.37988,1.95117-7.63281,2.11621-11.9707.46289a25.79566,25.79566,0,0,1-15.418-26.70313c.73926-4.585,3.00781-8.18457,6.38769-10.13574a12.20062,12.20062,0,0,1,6.15723-1.59277,16.35714,16.35714,0,0,1,5.81348,1.12988,25.7952,25.7952,0,0,1,15.417,26.70312Zm9.71094-23.4082a40.2603,40.2603,0,0,0-15.46656-15.3208l9.64722-5.56982a93.46152,93.46152,0,0,0,8.53223,7.51953,84.43809,84.43809,0,0,0,34.34594,16.22607L208.1377,482.91719A40.25426,40.25426,0,0,0,202.60352,461.86152Zm52.30175-97.25293A56.33928,56.33928,0,0,1,278.92871,384.509a56.955,56.955,0,0,1,9.35059,34.90332v.001c-1.16944,19.28418-19.13452,31.57812-31.58594,31.97363-.51074.00928-1.021.00977-1.53125.00635-14.572-.37354-26.19019-12.08252-29.82324-23.312-.05078-.15625-4.9961-15.7959,2.10156-24.20606,2.22949-2.6416,4.75781-3.46972,8.25781-4.61523,4.28906-1.4043,9.62793-3.15137,14.04-8.63965C254.875,384.23066,256.59277,375.65547,254.90527,364.60859Zm-41.16089,132.3916,42.25611-24.39648,42.25537,24.39648Zm95.6521-35.13867a40.25257,40.25257,0,0,0-5.53418,21.05518l-31.67993-18.29053c17.05664-3.73,31.23194-12.978,42.15747-24.16113l10.52344,6.07568A40.25586,40.25586,0,0,0,309.39648,461.86152Zm40.20606,23.21289a24.36836,24.36836,0,0,1-12.1377,10.79395c-4.33886,1.65332-8.59082,1.48926-11.9707-.46289-3.37891-1.95117-5.64746-5.55078-6.38672-10.13575a25.7952,25.7952,0,0,1,15.417-26.70312,16.3612,16.3612,0,0,1,5.81348-1.12988,12.2032,12.2032,0,0,1,6.15723,1.59277c3.37988,1.95117,5.64843,5.55078,6.38769,10.13574A24.37771,24.37771,0,0,1,349.60254,485.07441ZM387,497.00019H359.65625a42.73213,42.73213,0,0,0,2.93652-4.42578,39.38771,39.38771,0,0,0,5.09864-25.79687c-1.47168-9.124-6.33594-16.48926-13.69629-20.73828-.70728-.40821-1.43164-.77149-2.16431-1.11084a7.48039,7.48039,0,0,0-1.06226-.75147L324.1438,428.80488a100.78673,100.78673,0,0,0,10.39917-17.9668,7.50008,7.50008,0,1,0-13.71094-6.084,87.51749,87.51749,0,0,1-20.40015,28.36572,44.44278,44.44278,0,0,0,2.82007-12.79834,72.071,72.071,0,0,0-11.87011-44.17383c-14.69727-21.8916-36.71-28.38867-45.49219-30.165a7.49931,7.49931,0,0,0-8.61133,9.69433c2.82227,8.5791,5.24707,19.97461.76953,25.54492-1.5498,1.92676-3.47168,2.62207-7.0166,3.78321-4.25293,1.3916-10.07715,3.29882-15.05371,9.19629-12.2002,14.45507-5.69238,36.0791-4.91016,38.498q.25159.77711.53638,1.5542a79.15183,79.15183,0,0,1-7.79419-7.67822c-.02051-.02344-.04028-.04785-.061-.0708a74.31755,74.31755,0,0,1-15.061-26.07276c-.459-1.41992-11.05371-34.99218,5.501-54.60839,5.72363-6.78125,12.13672-8.88086,19.56152-11.31153,7.92578-2.59375,16.91016-5.53515,24.24805-14.66113,10.59179-13.17676,12.60351-32.32031,6.06445-58.28418,17.64258,5.64746,44.125,18.42871,63.1377,46.748,19.21777,28.626,20.55371,58.17773,19.63964,73.24511a7.50009,7.50009,0,0,0,14.97266.90821c1.02832-16.957-.48242-50.22559-22.15918-82.51465-27.44238-40.875-68.59082-53.01856-85.00879-56.3418a7.49982,7.49982,0,0,0-8.6123,9.69531c8.90625,27.06543,8.999,46.293.27539,57.14551-4.54688,5.6543-10.1416,7.48633-17.22364,9.80469-8.38476,2.74414-17.88671,5.85449-26.35839,15.89258-21.49707,25.47168-9.72266,64.52832-8.30957,68.89941a88.01076,88.01076,0,0,0,12.4497,24.32813L161.23145,444.177a7.53628,7.53628,0,0,0-1.0625.75147c-.73243.33935-1.45679.70263-2.16407,1.11084-7.36035,4.249-12.22461,11.61425-13.69629,20.73828a39.38771,39.38771,0,0,0,5.09864,25.79687,42.73213,42.73213,0,0,0,2.93652,4.42578H125V323.7082c0-72.2334,58.7666-131,131-131,.06055,0,.12109-.001.18164-.00195,33.8418-.84766,66.0752,12.0293,90.81836,36.17773a133.30047,133.30047,0,0,1,40,94.82422Zm0-357.06543H376.18652a7.5,7.5,0,0,0,0,15H387V259.12764a147.52,147.52,0,0,0-29.52246-40.979C329.83887,191.175,293.80273,176.8039,255.9082,177.7082A146.16141,146.16141,0,0,0,125,259.299V154.93476H346.18652a7.5,7.5,0,0,0,0-15H125V94.00019H387Zm90,357.06543H402V451.06562h75Zm0-320.62988H456.26465a7.5,7.5,0,0,0,0,15H477v75H456.26465a7.5,7.5,0,0,0,0,15H477v75H456.26465a7.5,7.5,0,0,0,0,15H477v64.69531H402V416.37031h20.73535a7.5,7.5,0,0,0,0-15H402v-75h20.73535a7.5,7.5,0,0,0,0-15H402v-75h20.73535a7.5,7.5,0,0,0,0-15H402V154.93476h75Zm0-36.43555H402V94.00019h75Zm12.5-60.93457H22.5a7.5082,7.5082,0,0,1-7.5-7.5v-17H45.13477a7.5,7.5,0,0,0,0-15H15v-17a7.5082,7.5082,0,0,1,7.5-7.5h467a7.5082,7.5082,0,0,1,7.5,7.5v17H466.86523a7.5,7.5,0,0,0,0,15H497v17A7.5082,7.5082,0,0,1,489.5,79.00019Z"/></svg>