<?xml version="1.0" encoding="UTF-8"?><svg xmlns="http://www.w3.org/2000/svg" xmlns:xlink="http://www.w3.org/1999/xlink" version="1.1" id="Layer_1" x="0px" y="0px" viewBox="0 0 24 24" xml:space="preserve"><g fill="none" stroke="#303C42" stroke-linecap="round" stroke-linejoin="round" stroke-miterlimit="10"><path d="M14.5 10.5l-10 10h-1"/><path d="M9.5 10.5l10 10h1"/><path d="M19.5 10.5h.584a6 6 0 0 0 2.683-.633L23.5 9.5l-.733-.367a6 6 0 0 0-2.683-.633H19.5"/><path d="M14.5 8.5h-13a1 1 0 1 0 0 2h13"/><path d="M5.5 8.5c0-4-1.5-5-1.5-5s-1.5 1-1.5 5"/><path d="M14.5 8.5h5v5h-5z"/></g><metadata><rdf:RDF xmlns:rdf="http://www.w3.org/1999/02/22-rdf-syntax-ns#" xmlns:rdfs="http://www.w3.org/2000/01/rdf-schema#" xmlns:dc="http://purl.org/dc/elements/1.1/"><rdf:Description about="https://iconscout.com/legal#licenses" dc:title="iron,ironing,board,table,folding,laundry,household" dc:description="iron,ironing,board,table,folding,laundry,household" dc:publisher="Iconscout" dc:date="2017-08-16" dc:format="image/svg+xml" dc:language="en"><dc:creator><rdf:Bag><rdf:li>Those Icons</rdf:li></rdf:Bag></dc:creator></rdf:Description></rdf:RDF></metadata></svg>