<svg xmlns="http://www.w3.org/2000/svg" data-name="Layer 1" viewBox="0 0 64 64"><path d="M48.857,46.464C51.5,42.047,54,37.056,54,34a11.928,11.928,0,0,0-2-6.619V3a1,1,0,0,0-1.2-.98L31.024,5.975,15.242,2.03a.99.99,0,0,0-.558.021l-12,4A1,1,0,0,0,2,7V43a1,1,0,0,0,1.287.958l19.678-5.9,9.507,3.567c.8,1.612,1.727,3.263,2.671,4.842C27.106,47.57,22,50.461,22,54c0,5.2,10.305,8,20,8s20-2.8,20-8C62,50.461,56.894,47.57,48.857,46.464ZM14,38.656l-10,3V30.721l10-3.333Zm0-13.377L4,28.612V18.721l10-3.333Zm0-12L4,16.612V7.721L14,4.387ZM40,6.22l10-2v9.059L40,16.613Zm0,12.5,10-3.333v9.693a11.777,11.777,0,0,0-10-2.9ZM28,7.281l2.758.689a.981.981,0,0,0,.438.01L38,6.62V17H28ZM28,19H38v3.7A12.05,12.05,0,0,0,31.105,29H28ZM26,37.057l-2.648-.994a1.006,1.006,0,0,0-.639-.021L16,38.056V27.388l10,3.333Zm0-8.444L16,25.279V15.388l10,3.333Zm0-12L16,13.279v-9l10,2.5Zm2,21.2V31H30.4A11.932,11.932,0,0,0,30,34a14.326,14.326,0,0,0,1.294,5.044ZM32,34a10,10,0,0,1,20,0c0,4.336-6.6,14.518-10,19.293C38.6,48.519,32,38.338,32,34ZM42,60c-10.607,0-18-3.162-18-6,0-2.075,4.309-4.719,12.29-5.661,2.438,3.891,4.7,6.977,4.905,7.254a1,1,0,0,0,1.61,0c.2-.277,2.467-3.363,4.905-7.254C55.691,49.281,60,51.925,60,54,60,56.838,52.607,60,42,60Z"/><path d="M48,33a6,6,0,1,0-6,6A6.006,6.006,0,0,0,48,33ZM38,33a4,4,0,1,1,4,4A4,4,0,0,1,38,33Z"/></svg>