<svg xmlns="http://www.w3.org/2000/svg" viewBox="0 0 64 64"><path d="M49,13a1,1,0,0,0,.8.4,1,1,0,0,0,.6-.2,1,1,0,0,0,.2-1.4c-.21-.28-.42-.55-.64-.82a1,1,0,0,0-1.56,1.26Z"/><path d="M48.11 38H33V27H54a1 1 0 0 0 1-1V25a21.81 21.81 0 0 0-2.22-9.64 1 1 0 1 0-1.8.88A19.75 19.75 0 0 1 53 25H40c-.12-7.94-1.64-16-4.43-19.81A20 20 0 0 1 45.74 9.6 1 1 0 0 0 47 8.06 22 22 0 0 0 33 3H31A22 22 0 0 0 9 25v1a1 1 0 0 0 1 1H31V38H15.89a1 1 0 0 0 0 2h9.19v3a5 5 0 0 0 5 5H31v7H28.12A6.28 6.28 0 0 0 22 59.76a1 1 0 0 0 .18.86A1 1 0 0 0 23 61H41a1 1 0 0 0 .79-.38 1 1 0 0 0 .18-.86A6.28 6.28 0 0 0 35.88 55H33V48h.92a5 5 0 0 0 5-5V40h9.19a1 1 0 0 0 0-2zM24 25H11A20 20 0 0 1 28.44 5.19C25.65 9 24.13 17.06 24 25zm2 0c.17-12.42 3.55-20 6-20s5.82 7.58 6 20zm9.87 32a4.28 4.28 0 0 1 3.62 2h-15a4.28 4.28 0 0 1 3.62-2zm1-14a3 3 0 0 1-3 3H30.08a3 3 0 0 1-3-3V40h9.84zM60 38a1 1 0 0 0-1 1v7H53a3 3 0 0 0-3 3V60a1 1 0 0 0 2 0V57h7v3a1 1 0 0 0 2 0V39A1 1 0 0 0 60 38zM59 55H52V52h7zm0-5H52V49a1 1 0 0 1 1-1h6zM11 46H5V39a1 1 0 0 0-2 0V60a1 1 0 0 0 2 0V57h7v3a1 1 0 0 0 2 0V49A3 3 0 0 0 11 46zm1 9H5V52h7zm0-5H5V48h6a1 1 0 0 1 1 1z"/></svg>