<?xml version="1.0" encoding="UTF-8"?><svg xmlns="http://www.w3.org/2000/svg" xmlns:xlink="http://www.w3.org/1999/xlink" version="1.1" id="Layer_1" x="0px" y="0px" viewBox="0 0 52 52" xml:space="preserve"><g fill="none" stroke="#000" stroke-width="2" stroke-linecap="round" stroke-linejoin="round" stroke-miterlimit="10"><path d="M27.672 21.95l.01-.01a12.833 12.833 0 0 1 9.422-4.1C44.227 17.84 50 23.613 50 30.736H28.993"/><path d="M42.762 10.968c0 3.124-2.532 6.875-5.656 6.875-.848 0-1.649-.279-2.37-.743a6.27 6.27 0 0 1-1.602-1.487 15.77 15.77 0 0 1-.035-.035c-1.033-1.324-1.66-3.042-1.66-4.61A5.668 5.668 0 0 1 37.106 5.3c3.124 0 5.656 2.543 5.656 5.668z"/><g><path d="M38.435 46.7H2c0-10.062 8.155-18.217 18.217-18.217S38.435 36.638 38.435 46.7z"/><path d="M28.228 18.774c0 2.215-.903 4.644-2.347 6.514l-.05.05c-.655.837-1.427 1.575-2.28 2.1-1.017.656-2.15 1.05-3.33 1.05-4.415 0-8.008-5.3-8.008-9.714s3.593-8.007 8.007-8.007 8.008 3.594 8.008 8.007z"/></g></g><g fill="none" stroke="#000" stroke-width="2" stroke-linecap="round" stroke-linejoin="round" stroke-miterlimit="10"><path d="M27.672 21.95l.01-.01a12.833 12.833 0 0 1 9.422-4.1C44.227 17.84 50 23.613 50 30.736H28.993"/><path d="M42.762 10.968c0 3.124-2.532 6.875-5.656 6.875-.848 0-1.649-.279-2.37-.743a6.27 6.27 0 0 1-1.602-1.487 15.77 15.77 0 0 1-.035-.035c-1.033-1.324-1.66-3.042-1.66-4.61A5.668 5.668 0 0 1 37.106 5.3c3.124 0 5.656 2.543 5.656 5.668z"/><g><path d="M38.435 46.7H2c0-10.062 8.155-18.217 18.217-18.217S38.435 36.638 38.435 46.7z"/><path d="M28.228 18.774c0 2.215-.903 4.644-2.347 6.514l-.05.05c-.655.837-1.427 1.575-2.28 2.1-1.017.656-2.15 1.05-3.33 1.05-4.415 0-8.008-5.3-8.008-9.714s3.593-8.007 8.007-8.007 8.008 3.594 8.008 8.007z"/></g></g><metadata><rdf:RDF xmlns:rdf="http://www.w3.org/1999/02/22-rdf-syntax-ns#" xmlns:rdfs="http://www.w3.org/2000/01/rdf-schema#" xmlns:dc="http://purl.org/dc/elements/1.1/"><rdf:Description about="https://iconscout.com/legal#licenses" dc:title="client,user,employees,customer" dc:description="client,user,employees,customer" dc:publisher="Iconscout" dc:date="2017-11-11" dc:format="image/svg+xml" dc:language="en"><dc:creator><rdf:Bag><rdf:li>Dinosoft Labs</rdf:li></rdf:Bag></dc:creator></rdf:Description></rdf:RDF></metadata></svg>