<svg xmlns="http://www.w3.org/2000/svg" viewBox="0 0 512 512"><path d="M183.19,218a22,22,0,1,0,22,22A22,22,0,0,0,183.19,218Zm0,29a7,7,0,1,1,7-7A7,7,0,0,1,183.19,247ZM347,90.16a22,22,0,1,0,22,22A22,22,0,0,0,347,90.16Zm0,29a7,7,0,1,1,7-7A7,7,0,0,1,347,119.16ZM415,187a22,22,0,1,0,22,22A22,22,0,0,0,415,187Zm0,29a7,7,0,1,1,7-7A7,7,0,0,1,415,216ZM512,51.52v-.07A33.54,33.54,0,0,0,478.57,18H33.42A33.54,33.54,0,0,0,0,51.36V376.52A33.54,33.54,0,0,0,33.5,410H93.79L64.22,483.77a7.5,7.5,0,1,0,13.93,5.57l33.61-83.94.06-.13,10.37-25.9v0l21.47-53.62,14.61,5.33-5.41,17.15v0l-8.19,26,0,0-8.17,25.93,0,.09L110,484.3a7.51,7.51,0,0,0,4.9,9.41,7.39,7.39,0,0,0,2.26.35,7.51,7.51,0,0,0,7.15-5.25l24.87-78.87H478.5a33.54,33.54,0,0,0,33.5-33.5V51.52ZM450.58,32.94a34.15,34.15,0,0,0-2.92,5.43,2.6,2.6,0,0,0-.1.25c-.17.4-.33.81-.48,1.22-.05.12-.09.25-.14.38-.13.37-.26.74-.38,1.12-.05.15-.09.3-.14.46-.1.35-.21.71-.3,1.07-.05.17-.09.34-.13.51s-.1.37-.14.56H288.64a33.24,33.24,0,0,0-4.73-11ZM444.4,59a15.3,15.3,0,0,1-14.66,11h-125a15.28,15.28,0,0,1-14.65-11ZM256,33a18.51,18.51,0,0,1,18.5,18.48h0v0A18.5,18.5,0,1,1,256,33Zm-27.91,0a33.24,33.24,0,0,0-4.73,11H66.15c0-.13-.07-.26-.1-.39s-.13-.54-.2-.81L65.64,42l-.24-.77c-.08-.25-.16-.5-.25-.75s-.17-.49-.26-.74l-.3-.76c-.1-.23-.19-.46-.28-.69s-.25-.54-.37-.81-.18-.41-.28-.61c-.2-.4-.4-.8-.61-1.19-.08-.14-.16-.28-.23-.43-.21-.37-.42-.74-.64-1.1l-.3-.47c-.15-.25-.3-.5-.46-.74Zm-7.18,26A18.53,18.53,0,0,1,204,70H85.5A18.53,18.53,0,0,1,68.59,59ZM33.5,33A18.51,18.51,0,0,1,52,51.44v0A18.51,18.51,0,0,1,33.52,69.94h0a18.5,18.5,0,1,1,0-37ZM15,79.36l.73.46c.16.1.31.21.47.3l1.11.64c.14.08.28.16.43.23.39.21.78.42,1.18.61l.61.28.81.37.7.28c.25.1.5.21.76.3l.74.26.74.26.78.23c.25.07.49.15.74.21l.81.21.39.1V343.79l-.57.14-.51.13-1.07.31-.46.14c-.37.12-.74.24-1.11.38l-.39.13c-.41.15-.81.31-1.21.48l-.25.1A32.6,32.6,0,0,0,15,348.53ZM33.5,394.94h0A18.5,18.5,0,1,1,52,376.44,18.52,18.52,0,0,1,33.46,394.94ZM52,324.45a18.53,18.53,0,0,1-11,16.91V86.53a18.53,18.53,0,0,1,11,16.92Zm47.79,70.49H61.42l.33-.52.45-.71c.12-.19.23-.4.34-.6.27-.47.53-.95.78-1.43.11-.22.23-.43.33-.64s.23-.49.34-.74l.31-.69c.11-.24.2-.49.3-.74s.2-.48.29-.72.18-.5.26-.75.17-.49.25-.74.16-.51.23-.76.15-.51.22-.77.13-.51.2-.77.07-.28.1-.42H104.2Zm10.41-26H68.58a18.59,18.59,0,0,1,16.92-11h29.11ZM149,311.71l5.45-14.94a2.09,2.09,0,0,1,.74-1,2.16,2.16,0,0,1,.59-.29,2,2,0,0,1,1.36,0l10.15,3.7.22.11.17.08a2.37,2.37,0,0,1,.3.23l0,0a2.11,2.11,0,0,1,.66,1.43v0a2.38,2.38,0,0,1,0,.38c0,.06,0,.11,0,.17a2.5,2.5,0,0,1-.07.26l-3.9,10.68-1.55,4.25Zm55,46.23a18.53,18.53,0,0,1,16.91,11H162.06l3.47-11Zm-50.14,37,3.47-11h66a33.15,33.15,0,0,0,4.73,11Zm102.22,0h-.16a18.5,18.5,0,1,1,.16,0Zm27.83,0a33.09,33.09,0,0,0,4.73-11H445.85c0,.13.07.27.1.41s.13.52.2.78.14.5.22.75.15.52.23.77.16.49.25.73.17.51.27.77.18.47.28.7l.3.75c.1.23.21.46.31.68s.22.5.34.75.21.41.32.62c.25.49.52,1,.8,1.46.11.2.22.4.34.59s.3.48.45.71l.32.52Zm6.2-26a15.29,15.29,0,0,1,14.65-11h125a15.29,15.29,0,0,1,14.66,11Zm167.3-18.49a33.68,33.68,0,0,0-4,3.88A30.22,30.22,0,0,0,429.74,343h-125a30.22,30.22,0,0,0-23.63,11.38,33.45,33.45,0,0,0-51.13,1,33.45,33.45,0,0,0-26-12.41H170.26l4.41-14,3.54-9.69,4.45-12.19a17.08,17.08,0,0,0-10.2-21.93l-10.16-3.71a17.13,17.13,0,0,0-21.92,10.21l-7.18,19.68-.8,2.21-11.78,29.42H85.5a33.24,33.24,0,0,0-23.68,9.81c-.82.83-1.6,1.69-2.33,2.59a32.83,32.83,0,0,0-4.9-4.89,33.44,33.44,0,0,0,12.41-26v-221a33.4,33.4,0,0,0-12.41-26,34,34,0,0,0,4.91-4.91A33.47,33.47,0,0,0,85.5,85H204a33.47,33.47,0,0,0,26-12.41,33.43,33.43,0,0,0,51.13,1A30.23,30.23,0,0,0,304.76,85h125a30.23,30.23,0,0,0,23.63-11.39,34.53,34.53,0,0,0,4,3.89,33.44,33.44,0,0,0-12.41,26v221A33.44,33.44,0,0,0,457.41,350.45Zm2.59-247a18.52,18.52,0,0,1,11-16.91V341.36a18.54,18.54,0,0,1-11-16.91Zm18.54,291.49h0a18.5,18.5,0,1,1,0-37q.93,0,1.83.09h.06c.55.06,1.08.15,1.61.25l.23,0c.48.1.95.23,1.42.37a3.58,3.58,0,0,1,.35.09c.4.13.79.28,1.18.43l.52.19c.31.13.6.29.9.44l.72.34c.23.13.44.28.67.41s.58.34.85.52l.46.34c.33.24.66.47,1,.73l.12.11A18.46,18.46,0,0,1,497,376.44v0A18.52,18.52,0,0,1,478.54,394.94ZM486,343.79V84.1l.35-.09.89-.23.64-.18c.29-.09.58-.17.87-.27l.62-.2.87-.31.58-.23.87-.36.5-.22.92-.43.14-.07c.75-.37,1.49-.77,2.21-1.19l.3-.17.81-.51.43-.28V348.53l-.9-.57-.28-.18c-.9-.54-1.83-1-2.78-1.51l-.25-.12-1.18-.53-.43-.18c-.35-.14-.69-.28-1-.4l-.51-.19c-.33-.11-.65-.23-1-.33l-.56-.17-1-.28-.59-.15ZM497,51.44a18.52,18.52,0,0,1-18.5,18.5h0A18.5,18.5,0,1,1,497,51.43ZM96.85,135.91a22,22,0,1,0,22,22A22,22,0,0,0,96.85,135.91Zm0,29a7,7,0,1,1,7-7A7,7,0,0,1,96.85,164.91Zm122.89-27.45a22,22,0,1,0,22,22A22,22,0,0,0,219.74,137.46Zm0,29a7,7,0,1,1,7-7A7,7,0,0,1,219.74,166.46ZM341.59,283.83a22,22,0,1,0,22,22A22,22,0,0,0,341.59,283.83Zm0,29a7,7,0,1,1,7-7A7,7,0,0,1,341.59,312.83ZM282,232.49a22,22,0,1,0,22,22A22,22,0,0,0,282,232.49Zm0,29a7,7,0,1,1,7-7A7,7,0,0,1,282,261.49Z" data-name="Capa 4"/></svg>