<svg xmlns="http://www.w3.org/2000/svg" enable-background="new 0 0 48 48" viewBox="0 0 48 48"><path d="M14.73 18.44c.25-.49.04-1.09-.45-1.34-.49-.25-1.09-.05-1.34.45-.13.27-1.28 2.69.19 4.15.34.34.04 1.39-.19 1.85-.25.49-.05 1.09.45 1.34.14.07.3.11.45.11.37 0 .72-.2.9-.55.13-.27 1.28-2.69-.19-4.15C14.2 19.96 14.5 18.91 14.73 18.44zM9.28 25.44c.25-.49.04-1.09-.45-1.34-.49-.25-1.09-.05-1.34.45-.13.27-1.28 2.69.19 4.15.34.34.04 1.39-.19 1.85-.25.49-.05 1.09.45 1.34C8.08 31.97 8.24 32 8.39 32c.37 0 .72-.2.9-.55.13-.27 1.28-2.69-.19-4.15C8.76 26.96 9.06 25.91 9.28 25.44zM23.49 17.55c-.13.27-1.28 2.69.19 4.15.34.34.04 1.39-.19 1.85-.25.49-.05 1.09.45 1.34.14.07.3.11.45.11.37 0 .72-.2.9-.55.13-.27 1.28-2.69-.19-4.15-.34-.34-.04-1.39.19-1.85.25-.49.04-1.09-.45-1.34C24.34 16.86 23.74 17.06 23.49 17.55zM19.84 25.44c.25-.49.04-1.09-.45-1.34-.49-.25-1.09-.05-1.34.45-.13.27-1.28 2.69.19 4.15.34.34.04 1.39-.19 1.85-.25.49-.05 1.09.45 1.34.14.07.3.11.45.11.37 0 .72-.2.9-.55.13-.27 1.28-2.69-.19-4.15C19.32 26.96 19.61 25.91 19.84 25.44zM33.83 23.55c-.25.49-.05 1.09.45 1.34.14.07.3.11.45.11.37 0 .72-.2.9-.55.13-.27 1.28-2.69-.19-4.15-.34-.34-.04-1.39.19-1.85.25-.49.04-1.09-.45-1.34-.49-.25-1.09-.05-1.34.45-.13.27-1.28 2.69.19 4.15C34.35 22.04 34.05 23.09 33.83 23.55zM28.38 30.55c-.25.49-.05 1.09.45 1.34.14.07.3.11.45.11.37 0 .72-.2.9-.55.13-.27 1.28-2.69-.19-4.15-.34-.34-.04-1.39.19-1.85.25-.49.04-1.09-.45-1.34-.49-.25-1.09-.05-1.34.45-.13.27-1.28 2.69.19 4.15C28.91 29.04 28.61 30.09 28.38 30.55zM38.72 30.55c-.25.49-.05 1.09.45 1.34.14.07.3.11.45.11.37 0 .72-.2.9-.55.13-.27 1.28-2.69-.19-4.15-.34-.34-.04-1.39.19-1.85.25-.49.04-1.09-.45-1.34-.49-.25-1.09-.05-1.34.45-.13.27-1.28 2.69.19 4.15C39.24 29.04 38.94 30.09 38.72 30.55z"/><path d="M24.6,3.2c-0.36-0.27-0.84-0.27-1.2,0l-20,15C3.15,18.39,3,18.69,3,19v25c0,0.55,0.45,1,1,1h16h8h16c0.55,0,1-0.45,1-1V19
		c0-0.31-0.15-0.61-0.4-0.8L24.6,3.2z M27,43h-6v-7h6V43z M43,43H29v-8c0-0.55-0.45-1-1-1h-8c-0.55,0-1,0.45-1,1v8H5V19.5L24,5.25
		L43,19.5V43z"/></svg>