<svg xmlns="http://www.w3.org/2000/svg" xmlns:svg="http://www.w3.org/2000/svg" id="svg7727" width="32" height="32" version="1.1" viewBox="0 0 32 32"><g id="layer1" transform="translate(0,-1020.3622)"><g id="g13985" transform="matrix(3.7795276,0,0,3.7795276,1091.5421,-260.74424)"><rect id="rect13965" width=".582" height="2.037" x="-41.738" y="446.618" transform="matrix(-0.70709911,-0.70711445,-0.70709911,0.70711445,0,0)" style="opacity:1;fill:none;fill-opacity:1;stroke:#000;stroke-width:.26458332;stroke-linecap:round;stroke-linejoin:round;stroke-miterlimit:4;stroke-dasharray:none;stroke-dashoffset:0;stroke-opacity:1"/><path id="path13967" d="m -285.22915,343.85141 c -0.84638,-0.84638 -0.61796,-2.44703 0.22842,-3.2934 0.84637,-0.84638 2.71792,-1.34567 3.56428,-0.49932 0.84639,0.84637 0.34707,2.71793 -0.49932,3.5643 -0.84636,0.84638 -2.44701,1.07477 -3.29338,0.22842 z" style="opacity:1;fill:none;fill-opacity:1;stroke:#000;stroke-width:.26458332;stroke-linecap:round;stroke-linejoin:round;stroke-miterlimit:4;stroke-dasharray:none;stroke-dashoffset:0;stroke-opacity:1"/><path style="fill:none;fill-rule:evenodd;stroke:#000;stroke-width:.26458332px;stroke-linecap:round;stroke-linejoin:round;stroke-opacity:1" id="path13969" d="m -285.75462,342.26859 -0.0431,0.45174 a 7.0000002,7.0000002 103.61656 0 1 -0.46797,1.93193 l -0.15686,0.39258 0.51164,-0.20488 a 7,7 165.29808 0 1 1.67877,-0.44048 l 0.18898,-0.0251"/><path id="path13971" d="m -285.2707,343.89295 3.78166,-3.78166" style="fill:none;fill-rule:evenodd;stroke:#000;stroke-width:.26458332px;stroke-linecap:butt;stroke-linejoin:miter;stroke-opacity:1"/><path style="fill:none;fill-rule:evenodd;stroke:#000;stroke-width:.26458332px;stroke-linecap:butt;stroke-linejoin:miter;stroke-opacity:1" id="path13973" d="m -284.21237,344.28982 3.2525,-3.25249"/><path id="path13975" d="m -285.66758,342.83462 3.2525,-3.2525" style="fill:none;fill-rule:evenodd;stroke:#000;stroke-width:.26458332px;stroke-linecap:butt;stroke-linejoin:miter;stroke-opacity:1"/><path style="fill:none;fill-rule:evenodd;stroke:#000;stroke-width:.26458329px;stroke-linecap:butt;stroke-linejoin:miter;stroke-opacity:1" id="path13977" d="m -284.60924,340.24358 2.98791,2.98791"/><path id="path13979" d="m -285.2707,340.90504 2.98791,2.98791" style="fill:none;fill-rule:evenodd;stroke:#000;stroke-width:.26458329px;stroke-linecap:butt;stroke-linejoin:miter;stroke-opacity:1"/><path style="fill:none;fill-rule:evenodd;stroke:#000;stroke-width:.26458326px;stroke-linecap:butt;stroke-linejoin:miter;stroke-opacity:1" id="path13981" d="m -285.66758,341.83108 2.45875,2.45874"/><path id="path13983" d="m -283.6832,339.8467 2.45874,2.45875" style="fill:none;fill-rule:evenodd;stroke:#000;stroke-width:.26458329px;stroke-linecap:butt;stroke-linejoin:miter;stroke-opacity:1"/></g></g><metadata/></svg>