<svg xmlns="http://www.w3.org/2000/svg" xmlns:xlink="http://www.w3.org/1999/xlink" id="Layer_1" x="0" y="0" version="1.1" viewBox="0 0 24 24" xml:space="preserve"><g fill="none" stroke="#303C42" stroke-linecap="round" stroke-linejoin="round" stroke-miterlimit="10"><path d="M17.5 15.5h-11a5.491 5.491 0 0 0 2.855 4.817c.29.16.331.541.104.78A3.48 3.48 0 0 0 8.5 23.5h7a3.48 3.48 0 0 0-.959-2.402c-.227-.24-.185-.622.104-.78A5.491 5.491 0 0 0 17.5 15.5z"/><path d="M17.5 15.5h-11a1 1 0 1 1 0-2h11a1 1 0 1 1 0 2z"/><path d="M9.806 5.494C9.01 6.287 8.5 7.43 8.5 8.452"/><path d="M15.287 13.5c1.341-1.318 2.213-3.291 2.213-5.048C17.5 5.494 15.038 2.5 12 2.5S6.5 5.494 6.5 8.452c0 1.757.872 3.73 2.213 5.048"/><circle cx="17" cy="2.5" r=".5"/><path d="M18.5 2.5h-1"/><path d="M16.727 11.5H18.2a1.5 1.5 0 0 0 1.485-1.288l.79-5.528c.017-.122.026-.246.026-.37V3.118A2.618 2.618 0 0 0 17.882.5H6.118A2.618 2.618 0 0 0 3.5 3.118v1.196c0 .124.009.248.026.37l.79 5.528A1.5 1.5 0 0 0 5.801 11.5h1.471"/></g><metadata><rdf:RDF xmlns:dc="http://purl.org/dc/elements/1.1/" xmlns:rdf="http://www.w3.org/1999/02/22-rdf-syntax-ns#" xmlns:rdfs="http://www.w3.org/2000/01/rdf-schema#"><rdf:Description about="https://iconscout.com/legal#licenses" dc:date="2017-08-16" dc:description="bathroom,restroom,toilet,wc" dc:format="image/svg+xml" dc:language="en" dc:publisher="Iconscout" dc:title="bathroom,restroom,toilet,wc"><dc:creator><rdf:Bag><rdf:li>Those Icons</rdf:li></rdf:Bag></dc:creator></rdf:Description></rdf:RDF></metadata></svg>