<?xml version="1.0" encoding="utf-8"?>
<svg xmlns="http://www.w3.org/2000/svg" xmlns:xlink="http://www.w3.org/1999/xlink" version="1.1" id="Layer_1" x="0px" y="0px" viewBox="0 0 24 24" style="enable-background:new 0 0 24 24;" xml:space="preserve">
<style type="text/css">
	.st0{fill:none;stroke:#303C42;stroke-linecap:round;stroke-linejoin:round;}
</style>
<title>Towel 1</title>
<g id="Towel_1">
	<g id="_Group_">
		<path id="_Path_" class="st0" d="M17.5,18.5H19c0.8,0,1.5-0.7,1.5-1.5V4c0-0.8-0.7-1.5-1.5-1.5H5C4.2,2.5,3.5,3.2,3.5,4v16    c0,0.8,0.7,1.5,1.5,1.5h11c0.8,0,1.5-0.7,1.5-1.5V4c0-0.8,0.7-1.5,1.5-1.5" style="fill: none; stroke: #303C42; stroke-linecap: round; stroke-linejoin: round;"/>
	</g>
	<circle class="st0" cx="1" cy="4.5" r="0.5" style="fill: none; stroke: #303C42; stroke-linecap: round; stroke-linejoin: round;"/>
	<circle class="st0" cx="23" cy="4.5" r="0.5" style="fill: none; stroke: #303C42; stroke-linecap: round; stroke-linejoin: round;"/>
	<line class="st0" x1="1.5" y1="4.5" x2="3.5" y2="4.5" style="fill: none; stroke: #303C42; stroke-linecap: round; stroke-linejoin: round;"/>
	<line class="st0" x1="22.5" y1="4.5" x2="17.5" y2="4.5" style="fill: none; stroke: #303C42; stroke-linecap: round; stroke-linejoin: round;"/>
</g>

	<metadata>
		<rdf:RDF xmlns:rdf="http://www.w3.org/1999/02/22-rdf-syntax-ns#" xmlns:rdfs="http://www.w3.org/2000/01/rdf-schema#" xmlns:dc="http://purl.org/dc/elements/1.1/">
			<rdf:Description about="https://iconscout.com/legal#licenses" dc:title="towel; dry; bathroom; bath" dc:description="towel; dry; bathroom; bath" dc:publisher="Iconscout" dc:date="2017-02-21" dc:format="image/svg+xml" dc:language="en">
				<dc:creator>
					<rdf:Bag>
						<rdf:li>Alpár - Etele Méder</rdf:li>
					</rdf:Bag>
				</dc:creator>
			</rdf:Description>
		</rdf:RDF>
    </metadata></svg>
